<svg width="16" height="16" viewBox="0 0 16 16" fill="none" xmlns="http://www.w3.org/2000/svg">
<path d="M10.666 1.33301C12.1388 1.33301 13.333 2.52725 13.333 4V7.33301C13.333 7.7012 13.0342 8 12.666 8C12.2981 7.99965 12 7.70098 12 7.33301V4C12 3.26362 11.4024 2.66699 10.666 2.66699H5.33301C4.59678 2.66717 4 3.26373 4 4V12.333C4 13.0693 4.59677 13.6668 5.33301 13.667H6.66602C7.0341 13.667 7.33283 13.965 7.33301 14.333C7.33301 14.7012 7.03421 15 6.66602 15H5.33301C3.86041 14.9998 2.66602 13.8057 2.66602 12.333V4C2.66602 2.52735 3.8604 1.33318 5.33301 1.33301H10.666Z" fill="black"/>
<path fill-rule="evenodd" clip-rule="evenodd" d="M11.1953 9.63965C11.8852 8.9501 13.0036 8.95005 13.6934 9.63965C14.3833 10.3296 14.3833 11.4487 13.6934 12.1387L11.3604 14.4717C11.2354 14.5966 11.0654 14.667 10.8887 14.667H9.33301C8.96497 14.6668 8.66602 14.3681 8.66602 14V12.4443C8.66607 12.2677 8.73646 12.0976 8.86133 11.9727L11.1953 9.63965ZM12.75 10.583C12.5808 10.414 12.3068 10.4139 12.1377 10.583L10 12.7207V13.333H10.6123L12.75 11.1953C12.9193 11.0261 12.9193 10.7523 12.75 10.583Z" fill="black"/>
<path d="M7.33301 6.66602C7.7011 6.66602 7.99983 6.96496 8 7.33301C8 7.7012 7.7012 8 7.33301 8H6C5.63181 8 5.33301 7.7012 5.33301 7.33301C5.33317 6.96496 5.63191 6.66602 6 6.66602H7.33301Z" fill="black"/>
<path d="M10 4C10.3682 4 10.667 4.2988 10.667 4.66699C10.6668 5.03504 10.3681 5.33398 10 5.33398H6C5.63191 5.33398 5.33317 5.03504 5.33301 4.66699C5.33301 4.2988 5.63181 4 6 4H10Z" fill="black"/>
</svg>
