<svg width="16" height="16" viewBox="0 0 16 16" fill="none" xmlns="http://www.w3.org/2000/svg">
<path d="M6.66699 6.66602C7.03493 6.66619 7.33382 6.96507 7.33398 7.33301V10.666C7.33398 11.0341 7.03503 11.3328 6.66699 11.333C6.2988 11.333 6 11.0342 6 10.666V7.33301C6.00017 6.96496 6.2989 6.66602 6.66699 6.66602Z" fill="black"/>
<path d="M9.33301 6.66602C9.7011 6.66602 9.99983 6.96496 10 7.33301V10.666C10 11.0342 9.7012 11.333 9.33301 11.333C8.96497 11.3328 8.66602 11.0341 8.66602 10.666V7.33301C8.66618 6.96507 8.96507 6.66619 9.33301 6.66602Z" fill="black"/>
<path fill-rule="evenodd" clip-rule="evenodd" d="M8 1C9.49251 1.00011 10.7525 1.98126 11.1777 3.33301H13.666C14.0342 3.33301 14.333 3.63181 14.333 4C14.333 4.36819 14.0342 4.66699 13.666 4.66699H13.3115L12.793 12.1836C12.6963 13.5816 11.5342 14.666 10.1328 14.666H5.86621C4.46507 14.6657 3.30268 13.5814 3.20605 12.1836L2.6875 4.66699H2.33301C1.96497 4.66682 1.66602 4.36808 1.66602 4C1.66602 3.63192 1.96497 3.33318 2.33301 3.33301H4.82227C5.24756 1.98129 6.50752 1.00011 8 1ZM4.53613 12.0918C4.58451 12.7905 5.16583 13.3327 5.86621 13.333H10.1328C10.8334 13.333 11.4145 12.7907 11.4629 12.0918L11.9746 4.66699H4.02441L4.53613 12.0918ZM8 2.33398C7.26063 2.33407 6.61543 2.73596 6.26953 3.33301H9.73145C9.38538 2.73581 8.73949 2.33407 8 2.33398Z" fill="black"/>
</svg>
