<svg width="16" height="16" viewBox="0 0 16 16" fill="none" xmlns="http://www.w3.org/2000/svg">
<path d="M13.334 9.33335C13.7019 9.33371 14 9.63237 14 10.0003V10.1341C14 10.6827 14.0007 11.1346 13.9707 11.5013C13.9401 11.8759 13.8747 12.2209 13.71 12.5443C13.4543 13.046 13.0456 13.4537 12.5439 13.7093C12.2206 13.874 11.8764 13.9404 11.502 13.971C11.1351 14.001 10.6826 14.0003 10.1338 14.0003H5.86719C5.31831 14.0003 4.86591 14.001 4.49902 13.971C4.12447 13.9404 3.77948 13.874 3.45605 13.7093C2.9546 13.4537 2.54663 13.0458 2.29102 12.5443C2.12622 12.2208 2.0609 11.8759 2.03027 11.5013C2.00032 11.1346 2 10.6827 2 10.1341V10.0003C2 9.63216 2.2988 9.33335 2.66699 9.33335C3.03503 9.33353 3.33398 9.63226 3.33398 10.0003V10.1341C3.33398 10.7047 3.3339 11.093 3.3584 11.3929C3.38226 11.6846 3.42548 11.8346 3.47852 11.9388C3.60634 12.1895 3.81078 12.3941 4.06152 12.5218C4.16574 12.5748 4.31569 12.6181 4.60742 12.6419C4.90743 12.6664 5.29636 12.6673 5.86719 12.6673H10.1338C10.7044 12.6673 11.0927 12.6664 11.3926 12.6419C11.6846 12.6181 11.8352 12.575 11.9395 12.5218C12.1901 12.394 12.3937 12.1895 12.5215 11.9388C12.5746 11.8346 12.6177 11.6849 12.6416 11.3929C12.6661 11.093 12.667 10.7048 12.667 10.1341V10.0003C12.667 9.63216 12.9658 9.33335 13.334 9.33335Z" fill="black"/>
<path d="M11.1094 2.63511C11.3112 2.3272 11.7243 2.24097 12.0322 2.44273C12.3399 2.64453 12.4261 3.05773 12.2246 3.36558L7.85645 10.0326C7.74116 10.2082 7.54958 10.3195 7.33984 10.3324C7.13004 10.3452 6.92595 10.2583 6.79004 10.098L4.49121 7.38121C4.2536 7.10022 4.28853 6.67958 4.56934 6.44175C4.85029 6.20412 5.27093 6.23913 5.50879 6.51988L7.23047 8.55406L11.1094 2.63511Z" fill="black"/>
</svg>
