<svg width="16" height="16" viewBox="0 0 16 16" fill="none" xmlns="http://www.w3.org/2000/svg">
<path d="M1.99967 7.99969C1.99985 4.68624 4.68622 1.99987 7.99967 1.99969C8.79394 1.99969 9.55407 2.15471 10.2497 2.43622C10.5909 2.57436 10.7559 2.96311 10.6178 3.30438C10.4797 3.64567 10.091 3.8107 9.74967 3.67255C9.21022 3.45419 8.61973 3.33368 7.99967 3.33368C5.4226 3.33386 3.33383 5.42262 3.33366 7.99969C3.33366 9.84384 4.40295 11.4398 5.95866 12.1979C6.28964 12.3592 6.42756 12.7586 6.26627 13.0895C6.10495 13.4204 5.70562 13.5575 5.37467 13.3962C3.37813 12.4232 1.99967 10.373 1.99967 7.99969Z" fill="black"/>
<path d="M5.33366 10C5.33366 9.63194 5.63163 9.3332 5.99967 9.33303C6.36786 9.33303 6.66666 9.63183 6.66666 10V13.333C6.66666 13.7012 6.36786 14 5.99967 14H2.66666C2.29847 14 1.99967 13.7012 1.99967 13.333C1.99985 12.965 2.29858 12.667 2.66666 12.667H5.33366V10Z" fill="black"/>
<path d="M8.66666 14C9.03486 14 9.33333 13.7016 9.33333 13.3334C9.33333 12.9652 9.03486 12.6667 8.66666 12.6667C8.29846 12.6667 8 12.9652 8 13.3334C8 13.7016 8.29846 14 8.66666 14Z" fill="black"/>
<path d="M14 7.33335C14 6.96515 13.7015 6.66668 13.3333 6.66668C12.9651 6.66668 12.6667 6.96515 12.6667 7.33335C12.6667 7.70155 12.9651 8.00002 13.3333 8.00002C13.7015 8.00002 14 7.70155 14 7.33335Z" fill="black"/>
<path d="M13.2863 9.51196C13.6052 9.69609 13.7144 10.1038 13.5303 10.4227C13.3462 10.7416 12.9385 10.8508 12.6197 10.6667C12.3008 10.4826 12.1915 10.0749 12.3756 9.75602C12.5597 9.43715 12.9675 9.32789 13.2863 9.51196Z" fill="black"/>
<path d="M11.5784 12.8628C11.8973 12.6788 12.0065 12.271 11.8224 11.9522C11.6383 11.6333 11.2306 11.524 10.9117 11.7081C10.5929 11.8922 10.4836 12.3 10.6677 12.6188C10.8518 12.9377 11.2595 13.0469 11.5784 12.8628Z" fill="black"/>
<path d="M12.6179 5.33334C12.2991 5.51743 11.8914 5.40819 11.7073 5.08933C11.5232 4.77046 11.6325 4.36273 11.9513 4.17864C12.2701 3.99455 12.6779 4.10379 12.862 4.42266C13.0461 4.74152 12.9368 5.14925 12.6179 5.33334Z" fill="black"/>
</svg>
