<svg width="16" height="16" viewBox="0 0 16 16" fill="none" xmlns="http://www.w3.org/2000/svg">
<path d="M12.6672 9.82985V6.1697C12.6672 5.68799 12.4073 5.24374 11.9875 5.00759L8.65446 3.13259C8.29943 2.93288 7.87533 2.9077 7.50309 3.05739L7.34684 3.13259L4.01383 5.00759C3.594 5.24374 3.33415 5.68799 3.33415 6.1697V9.83083C3.3343 10.3124 3.59413 10.7569 4.01383 10.9929L7.34684 12.867C7.75269 13.0953 8.24861 13.0953 8.65446 12.867L11.9875 10.992C12.4072 10.7558 12.6672 10.3115 12.6672 9.82985ZM14.0002 9.82985C14.0002 10.7932 13.4805 11.6818 12.6408 12.1541L9.30778 14.0291C8.49608 14.4857 7.50524 14.4856 6.69352 14.0291L3.35954 12.155C2.51997 11.6828 2.00031 10.7941 2.00016 9.83083V6.1697C2.00016 5.20638 2.51998 4.31782 3.35954 3.84548L6.69352 1.97048C7.5052 1.51404 8.49614 1.51394 9.30778 1.97048L12.6408 3.84548C13.4804 4.31779 14.0002 5.20629 14.0002 6.1697V9.82985Z" fill="black"/>
<path d="M12.6672 9.82985V6.1697C12.6672 5.68799 12.4073 5.24374 11.9875 5.00759L8.65446 3.13259C8.24854 2.90428 7.75277 2.9043 7.34684 3.13259L4.01383 5.00759C3.594 5.24374 3.33415 5.68799 3.33415 6.1697V9.83083C3.3343 10.3124 3.59413 10.7569 4.01383 10.9929L7.34684 12.867L7.50258 12.9421C7.87484 13.0919 8.29937 13.0667 8.65446 12.867L11.9875 10.992C12.4072 10.7558 12.6672 10.3115 12.6672 9.82985ZM14.0002 9.82985C14.0002 10.7932 13.4805 11.6818 12.6408 12.1541L9.30778 14.0291C8.49608 14.4857 7.50524 14.4856 6.69352 14.0291L3.35954 12.155C2.51997 11.6828 2.00031 10.7941 2.00016 9.83083V6.1697C2.00016 5.20638 2.51998 4.31782 3.35954 3.84548L6.69352 1.97048L6.84731 1.89039C7.62799 1.516 8.54683 1.5425 9.30778 1.97048L12.6408 3.84548C13.4804 4.31779 14.0002 5.20629 14.0002 6.1697V9.82985Z" fill="black"/>
<path d="M9.33299 8.00001C9.33299 7.2636 8.73639 6.667 7.99998 6.667C7.26357 6.667 6.66697 7.2636 6.66697 8.00001C6.66697 8.73642 7.26357 9.33301 7.99998 9.33301C8.73639 9.33301 9.33299 8.73642 9.33299 8.00001ZM10.667 8.00001C10.667 9.4728 9.47277 10.667 7.99998 10.667C6.52719 10.667 5.33299 9.4728 5.33299 8.00001C5.33299 6.52722 6.52719 5.33301 7.99998 5.33301C9.47277 5.33301 10.667 6.52722 10.667 8.00001Z" fill="black"/>
</svg>
