<svg width="16" height="16" viewBox="0 0 16 16" fill="none" xmlns="http://www.w3.org/2000/svg">
<path fill-rule="evenodd" clip-rule="evenodd" d="M11.334 2C12.8065 2.00035 14 3.19446 14 4.66699V11.334C13.9997 12.8063 12.8063 13.9996 11.334 14H4.66699C3.19445 14 2.00034 12.8065 2 11.334V4.66699C2 3.19424 3.19424 2 4.66699 2H11.334ZM4.32227 12.6191C4.43232 12.6485 4.54765 12.667 4.66699 12.667H11.334C12.0699 12.6666 12.6667 12.0699 12.667 11.334V4.66699C12.667 4.54765 12.6486 4.43232 12.6191 4.32227L4.32227 12.6191ZM3.33398 8.94336V11.334C3.33404 11.4526 3.34983 11.5673 3.37891 11.6768L11.6768 3.37891C11.5673 3.34982 11.4525 3.33404 11.334 3.33398H8.94336L3.33398 8.94336ZM4.66699 3.33398C3.93062 3.33398 3.33398 3.93062 3.33398 4.66699V7.05664L7.05664 3.33398H4.66699Z" fill="black"/>
</svg>
