<svg width="16" height="16" viewBox="0 0 16 16" fill="none" xmlns="http://www.w3.org/2000/svg">
<path d="M9.03646 12.8311C9.89284 12.464 10.8788 12.5697 11.637 13.1113L12.0003 13.3711V6.66699C12.0003 4.45796 10.2093 2.66717 8.00033 2.66699C5.79119 2.66699 4.00033 4.45785 4.00033 6.66699V13.3711L4.36361 13.1113C5.12174 12.57 6.10795 12.4641 6.9642 12.8311L8.00033 13.2744L9.03646 12.8311ZM6.43587 6.00488C6.94003 6.05622 7.33334 6.48238 7.33334 7C7.33334 7.55222 6.88565 8 6.33334 8C5.81563 8 5.38955 7.60662 5.33822 7.10254L5.33334 7L5.33822 6.89746C5.38955 6.39338 5.81563 6 6.33334 6L6.43587 6.00488ZM9.66634 6C10.2186 6 10.6663 6.44774 10.6663 7C10.6663 7.55226 10.2186 8 9.66634 8C9.11424 7.99982 8.66634 7.55215 8.66634 7C8.66634 6.44785 9.11424 6.00018 9.66634 6ZM13.3333 13.3711C13.3333 14.4556 12.1074 15.0865 11.2249 14.4561L10.8617 14.1963C10.4827 13.9257 9.98981 13.8724 9.56185 14.0557L8.52572 14.5C8.19036 14.6437 7.8103 14.6437 7.47494 14.5L6.4388 14.0557C6.01063 13.8722 5.51711 13.9255 5.13802 14.1963L4.77474 14.4561C3.89226 15.0863 2.66634 14.4556 2.66634 13.3711V6.66699C2.66634 3.72148 5.05481 1.33301 8.00033 1.33301C10.9457 1.33318 13.3333 3.72158 13.3333 6.66699V13.3711Z" fill="black"/>
</svg>
