<svg width="16" height="16" viewBox="0 0 16 16" fill="none" xmlns="http://www.w3.org/2000/svg">
<path d="M8.13832 2.71771C8.9851 1.14506 11.1086 0.832991 12.3717 2.09564L13.9039 3.62786C15.167 4.89093 14.8554 7.01432 13.2829 7.86126L12.2623 8.41107C11.8686 8.62318 11.6077 9.0184 11.567 9.4638L11.3834 11.4745C11.1787 13.726 8.44111 14.7175 6.84243 13.1191L5.33266 11.6083L3.13832 13.8046C2.87797 14.065 2.45531 14.065 2.19496 13.8046C1.93491 13.5444 1.93497 13.1225 2.19496 12.8622L4.39028 10.666L2.88149 9.15716C1.28299 7.55858 2.27379 4.82116 4.52504 4.61615L6.53579 4.43353C6.98133 4.39302 7.37735 4.1312 7.5895 3.73724L8.13832 2.71771ZM11.4293 3.039C10.7978 2.40744 9.73556 2.56318 9.31215 3.34954L8.76332 4.37005C8.33908 5.15778 7.54789 5.68059 6.65688 5.76165L4.64614 5.94427C3.52042 6.04669 3.02465 7.41547 3.82387 8.21478L7.78579 12.1757C8.58513 12.9748 9.95394 12.4792 10.0563 11.3535L10.2389 9.34369C10.32 8.45259 10.8427 7.6615 11.6305 7.23724L12.65 6.68743C13.4364 6.264 13.5931 5.20179 12.9616 4.57025L11.4293 3.039Z" fill="black"/>
</svg>
