<svg width="16" height="16" viewBox="0 0 16 16" fill="none" xmlns="http://www.w3.org/2000/svg">
<path d="M5.99709 4.666C5.99714 4.0651 6.09959 3.48775 6.28322 2.94822C4.18019 3.66237 2.66701 5.65444 2.66701 7.999C2.66724 10.9436 5.05438 13.331 7.99904 13.331C10.3438 13.3309 12.335 11.8163 13.0488 9.71287C12.5092 9.89657 11.9321 9.99995 11.3311 9.99998C8.38554 9.99998 5.99709 7.61148 5.99709 4.666ZM7.33108 4.666C7.33108 6.87511 9.12194 8.66697 11.3311 8.66697C12.1737 8.66691 12.9537 8.40679 13.5977 7.96287C13.8099 7.81657 14.0876 7.80522 14.3106 7.93455C14.5334 8.06391 14.6622 8.3106 14.6406 8.56736C14.3514 11.9823 11.4884 14.6639 7.99904 14.664C4.318 14.664 1.33326 11.68 1.33303 7.999C1.33303 4.50954 4.01473 1.64676 7.42971 1.3574C7.68649 1.33581 7.93313 1.46363 8.06252 1.6865C8.19195 1.90947 8.18044 2.18709 8.0342 2.3994C7.59038 3.04333 7.33117 3.82352 7.33108 4.666Z" fill="black"/>
</svg>
