<svg width="16" height="16" viewBox="0 0 16 16" fill="none" xmlns="http://www.w3.org/2000/svg">
<path d="M12.6667 4.66665C12.6667 3.93037 12.0699 3.33381 11.3337 3.33364H4.66668C3.9303 3.33364 3.33367 3.93027 3.33367 4.66665V11.3336C3.33384 12.0699 3.9304 12.6666 4.66668 12.6666H11.3337C12.0698 12.6665 12.6665 12.0698 12.6667 11.3336V4.66665ZM13.9997 11.3336C13.9995 12.8062 12.8062 13.9995 11.3337 13.9997H4.66668C3.19403 13.9997 1.99986 12.8063 1.99968 11.3336V4.66665C1.99968 3.19389 3.19392 1.99965 4.66668 1.99965H11.3337C12.8063 1.99983 13.9997 3.19401 13.9997 4.66665V11.3336Z" fill="black"/>
<path d="M7.33302 14.6663V1.33331C7.33302 0.965123 7.63182 0.666321 8.00001 0.666321C8.3682 0.666321 8.667 0.965123 8.667 1.33331V14.6663C8.667 15.0345 8.3682 15.3333 8.00001 15.3333C7.63182 15.3333 7.33302 15.0345 7.33302 14.6663Z" fill="black"/>
<path d="M5.33334 2.66665V5.33331H2.66668C2.66668 4.71333 2.66668 4.40334 2.73482 4.14901C2.91976 3.45883 3.45886 2.91973 4.14904 2.73479C4.40337 2.66665 4.71336 2.66665 5.33334 2.66665Z" fill="black"/>
<path d="M8.00001 5.33331V7.99998H5.33334V5.33331H8.00001Z" fill="black"/>
<path d="M5.33334 7.99998V10.6666H2.66668V7.99998L5.33334 7.99998Z" fill="black"/>
<path d="M8.00001 10.6666V13.3333H5.33334V10.6666L8.00001 10.6666Z" fill="black"/>
</svg>
