<svg width="16" height="16" viewBox="0 0 16 16" fill="none" xmlns="http://www.w3.org/2000/svg">
<path d="M11.1956 3.86164C11.456 3.60167 11.8778 3.60157 12.138 3.86164C12.3984 4.12199 12.3984 4.54465 12.138 4.805L8.94271 7.99934L12.138 11.1956C12.3982 11.456 12.3983 11.8777 12.138 12.138C11.8777 12.3983 11.456 12.3982 11.1956 12.138L7.99935 8.9427L4.80502 12.138C4.54467 12.3984 4.12201 12.3984 3.86166 12.138C3.60158 11.8778 3.60169 11.4559 3.86166 11.1956L7.05697 7.99934L3.86166 4.805C3.60131 4.54465 3.60131 4.12199 3.86166 3.86164C4.12201 3.60129 4.54467 3.60129 4.80502 3.86164L7.99935 7.05696L11.1956 3.86164Z" fill="black"/>
</svg>
