<svg width="16" height="16" viewBox="0 0 16 16" fill="none" xmlns="http://www.w3.org/2000/svg">
<path d="M6.46617 11.5967C7.38618 10.95 8.61354 10.95 9.53355 11.5967L12.0003 13.3301V4C12.0003 3.26362 11.4028 2.66699 10.6664 2.66699H5.33335C4.59698 2.66699 4.00035 3.26362 4.00035 4V13.3301L6.46617 11.5967ZM13.3334 13.3301C13.3332 14.4096 12.1172 15.0414 11.2337 14.4209L8.76695 12.6875C8.30699 12.3642 7.69372 12.3642 7.23374 12.6875L4.76695 14.4209C3.88349 15.0418 2.66652 14.4098 2.66636 13.3301V4C2.66636 2.52724 3.8606 1.33301 5.33335 1.33301H10.6664C12.1392 1.33301 13.3334 2.52725 13.3334 4V13.3301Z" fill="black"/>
</svg>
