<svg width="16" height="16" viewBox="0 0 16 16" fill="none" xmlns="http://www.w3.org/2000/svg">
<g clip-path="url(#clip0_83_96)">
<path d="M7.33333 14.6663V14.0003C7.33333 13.6321 7.63214 13.3333 8.00033 13.3333C8.36837 13.3335 8.66634 13.6322 8.66634 14.0003V14.6663C8.66634 15.0344 8.36837 15.3331 8.00033 15.3333C7.63214 15.3333 7.33333 15.0345 7.33333 14.6663ZM3.28841 11.7689C3.54876 11.5085 3.97142 11.5085 4.23177 11.7689C4.49178 12.0292 4.49183 12.451 4.23177 12.7112L3.75814 13.1849C3.49787 13.445 3.07609 13.4449 2.81576 13.1849C2.55541 12.9245 2.55541 12.5019 2.81576 12.2415L3.28841 11.7689ZM11.7689 11.7689C12.0292 11.5086 12.4509 11.5085 12.7113 11.7689L13.1849 12.2415C13.4452 12.5018 13.4452 12.9245 13.1849 13.1849C12.9245 13.4452 12.5019 13.4452 12.2415 13.1849L11.7689 12.7112C11.5085 12.4509 11.5085 12.0292 11.7689 11.7689ZM5.17122 5.1712C6.73327 3.60916 9.26635 3.60926 10.8285 5.1712C12.3906 6.7333 12.3906 9.26634 10.8285 10.8284C9.26636 12.3906 6.73332 12.3906 5.17122 10.8284C3.60928 9.26633 3.60918 6.73325 5.17122 5.1712ZM9.88607 6.11456C8.84469 5.07317 7.15599 5.07316 6.11458 6.11456C5.07318 7.15597 5.07319 8.84467 6.11458 9.88605C7.15601 10.9272 8.8448 10.9274 9.88607 9.88605C10.9274 8.84478 10.9272 7.15599 9.88607 6.11456ZM2.00033 7.33331C2.36837 7.33349 2.66634 7.63222 2.66634 8.00031C2.66617 8.36824 2.36826 8.66614 2.00033 8.66632H1.33333C0.965253 8.66632 0.666518 8.36835 0.666342 8.00031C0.666342 7.63212 0.965144 7.33331 1.33333 7.33331H2.00033ZM14.6663 7.33331C15.0345 7.33331 15.3333 7.63212 15.3333 8.00031C15.3332 8.36835 15.0344 8.66632 14.6663 8.66632H14.0003C13.6322 8.66632 13.3335 8.36835 13.3333 8.00031C13.3333 7.63212 13.6321 7.33331 14.0003 7.33331H14.6663ZM2.81576 2.81573C3.07611 2.55539 3.49779 2.55539 3.75814 2.81573L4.23177 3.28839C4.4921 3.54874 4.49211 3.97141 4.23177 4.23175C3.97143 4.49206 3.54875 4.49207 3.28841 4.23175L2.81576 3.75812C2.55542 3.49778 2.55544 3.07609 2.81576 2.81573ZM12.2415 2.81573C12.5019 2.55539 12.9245 2.55539 13.1849 2.81573C13.4448 3.07607 13.445 3.49788 13.1849 3.75812L12.7113 4.23175C12.451 4.4918 12.0292 4.49167 11.7689 4.23175C11.5085 3.9714 11.5085 3.54874 11.7689 3.28839L12.2415 2.81573ZM7.33333 2.00031V1.33331C7.33333 0.965123 7.63214 0.666321 8.00033 0.666321C8.36837 0.666497 8.66634 0.965232 8.66634 1.33331V2.00031C8.66617 2.36824 8.36826 2.66614 8.00033 2.66632C7.63224 2.66632 7.33351 2.36835 7.33333 2.00031Z" fill="black"/>
</g>
<defs>
<clipPath id="clip0_83_96">
<rect width="16" height="16" fill="white"/>
</clipPath>
</defs>
</svg>
